# xmcd
#
# Track frame offsets:
#	150
#	27623
#	42189
#	57168
#	73874
#	90518
#	103828
#	116120
#	133526
#	147472
#	165963
#	194487
#	207752
#	221741
#	234736
#	250268
#
# Disc length: 3720 seconds
#
# Revision: 0
# Processed by: cddbd v1.5.2PL0 Copyright (c) Steve Scherf et al.
# Submitted via: EZCDAudioConverter 2.1.5.1
#
DISCID=f30e8610
DTITLE=Various Artist - Çñþäåéï
DYEAR=1999
DGENRE=¸íôå÷íï
TTITLE0=Δήμος Μούτσης - Γουωκμαν
TTITLE1=Δήμητρα Γαλάνη - Τούτο το Βράδυ
TTITLE2=Δημήτρης Μητροπάνος - Οι Ρήτορες
TTITLE3=Δήμητρα Γαλάνη - Ο Άγιος Φεβρουάριος
TTITLE4=Δημήτρης Μητροπάνος - Στήν Σμύρνη και στο Αιβαλί
TTITLE5=Δήμητρα Γαλάνη - Το σπίτι στην ανηφοριά
TTITLE6=Δημήτρης Μητροπάνος - Ο χάρος βγήκε παγανιά
TTITLE7=Δήμητρα Γαλάνη - Το κομοδίνο
TTITLE8=Δημήτρης Μητροπάνος - Σταμάτης Κομνηνός
TTITLE9=Δήμος Μούτσης - Μια φυσαρμόνικα που καίει
TTITLE10=Δήμος Μούτσης - Όνειρο
TTITLE11=Δήμητρα Γαλάνη - Κι άν φταίει κανέις
TTITLE12=Δημήτρης Μητροπάνος - Άλλος για Χίο τράβηξε
TTITLE13=Δημήτρης Μητροπάνος - Η σούστα πήγαινε μπροστά
TTITLE14=Δήμητρα Γαλάνη-Δήμος Μούτσης - Ταξιδιώτης του παντός
TTITLE15=Δημήτρης Μητροπάνος-Δήμητρα Γαλάνη-Δήμος Μούτσης - Δε λές κουβέντα
EXTD=
EXTT0=
EXTT1=
EXTT2=
EXTT3=
EXTT4=
EXTT5=
EXTT6=
EXTT7=
EXTT8=
EXTT9=
EXTT10=
EXTT11=
EXTT12=
EXTT13=
EXTT14=
EXTT15=
PLAYORDER=
